<svg width="56" height="68" viewBox="0 0 56 68" fill="none" xmlns="http://www.w3.org/2000/svg"><g clip-path="url(#clip0_2128_60079)"><path d="M56 0H0v55.738h56V0Z" fill="#F9A01B"/><path d="M19.712 47.823h-8.736v-30.21H5.264v-5.128c3.92.056 6.496-1.56 7.896-5.35h6.552v40.688Zm17.136-23.076c1.68-1.56 2.912-2.675 5.712-2.675 5.208 0 7.952 4.403 7.952 12.597 0 7.692-2.016 13.823-11.256 13.823-6.496 0-9.8-3.289-10.976-9.531-.504-2.732-.56-6.076-.56-10.646.056-5.574.112-8.918.616-11.65 1.176-6.242 4.48-9.53 10.976-9.53 5.88 0 10.64 3.622 10.64 9.753v2.063h-8.176v-.948c0-2.787-1.064-3.511-2.464-3.511-1.68.223-2.408 1.783-2.464 4.013v6.242Zm2.52 5.351c-1.736 0-2.52 1.728-2.52 5.407 0 3.678.784 5.406 2.52 5.406 1.848 0 2.632-1.672 2.632-5.406 0-3.735-.784-5.407-2.632-5.407Z" fill="#fff"/><path d="M0 0v68h56V0H0Zm54.88 54.623H1.12V1.115h53.76v53.508Z" fill="#fff"/><path d="M50.153 2.23v.412h-.884v2.787h-.516V2.642h-.884v-.413h2.296-.012Zm3.607 3.21h-.515V2.91h-.012l-.895 2.53h-.426l-.851-2.53h-.011v2.53h-.516V2.23h.83l.806 2.385h.01l.785-2.386h.806V5.44h-.011Z" fill="#fff"/><path d="M3.562 63.697h.94l.874-4.225h.022l.908 4.225h.896l1.232-5.172h-.852l-.806 4.225h-.022l-.863-4.225H4.94l-.885 4.225h-.022l-.84-4.225h-.851l1.22 5.172Zm6.283 0h.952l.873-4.225h.023l.907 4.225h.885l1.232-5.172h-.851l-.807 4.225h-.01l-.863-4.225h-.963l-.885 4.225h-.023l-.829-4.225h-.85l1.209 5.172Zm6.283 0h.952l.874-4.225h.022l.907 4.225h.896l1.232-5.172h-.85l-.807 4.225h-.023l-.862-4.225h-.963l-.885 4.225h-.011l-.84-4.225h-.851l1.21 5.172Zm5.342 0h.885v-1.025h-.885v1.025Z" fill="#231F20"/><path fill-rule="evenodd" clip-rule="evenodd" d="M24.382 61.111c0-1.182.146-2.029 1.053-2.029.762 0 .952.792.952 1.929 0 1.326-.19 2.129-.952 2.129-.874 0-1.053-1.026-1.053-2.029Zm-.761 4.28h.817v-2.285h.023c.179.446.616.725 1.086.725 1.344 0 1.702-1.639 1.702-2.82 0-1.539-.47-2.631-1.702-2.631-.56 0-1.02.39-1.12.77h-.022v-.636h-.773v6.878h-.011Zm5.196-4.826v-.19c0-.312.101-1.349.952-1.349.717 0 .908.68.908 1.26v.279h-1.86Zm2.71.635v-.323c0-1.115-.145-2.497-1.735-2.497s-1.848 1.494-1.848 2.787c0 1.772.537 2.653 1.803 2.653 1.411 0 1.747-1.282 1.747-1.84h-.817c0 .39-.112 1.205-.885 1.205-.997 0-.997-1.205-.997-1.996h2.733v.011Zm2.498-2.118c.874 0 1.053 1.026 1.053 2.03 0 1.058-.179 1.894-1.053 1.894-.817 0-.94-1.048-.94-1.895 0-1.237.19-2.029.952-2.029h-.012Zm1.815-.557h-.773v.658h-.022c-.101-.402-.56-.792-1.12-.792-1.322 0-1.692 1.327-1.692 2.72 0 .691.09 2.586 1.613 2.586.515 0 .997-.256 1.176-.69h.023v.68c0 .356.033 1.159-1.008 1.159-.426 0-.796-.19-.83-.658h-.817c.135 1.293 1.389 1.293 1.703 1.293 1.052 0 1.77-.557 1.77-2.107v-4.85h-.023Zm1.109 5.172h.817v-5.172h-.817v5.172Zm0-5.964h.817v-.925h-.817v.925Z" fill="#231F20"/><path d="M39.065 63.697h.896v-1.025h-.896v1.025Z" fill="#231F20"/><path fill-rule="evenodd" clip-rule="evenodd" d="M41.26 63.697h.818v-5.172h-.817v5.172Zm0-5.964h.818v-.925h-.817v.925Z" fill="#231F20"/><path d="M43.187 63.697h.818V60.13c0-.747.593-1.037 1.03-1.037.74 0 .762.647.762 1.037v3.567h.817V60.03c0-.602 0-1.639-1.366-1.639-.504 0-1.042.268-1.255.747h-.022v-.613h-.773v5.172h-.011Zm4.738 0h.817V59.16h.885v-.635h-.885v-.602c0-.357.168-.49.527-.49h.38v-.692h-.593c-.784 0-1.131.401-1.131 1.182v.602h-.75v.635h.75v4.537Z" fill="#231F20"/><path fill-rule="evenodd" clip-rule="evenodd" d="M49.94 61.111c0 1.46.37 2.72 1.871 2.72s1.87-1.26 1.87-2.72c0-1.46-.369-2.72-1.87-2.72-1.5 0-1.87 1.26-1.87 2.72Zm1.849 2.085c-.84 0-.997-.97-.997-2.085s.18-2.084.997-2.084c.873 0 1.041.97 1.041 2.084 0 1.115-.179 2.085-1.041 2.085Z" fill="#231F20"/></g><defs><clipPath id="clip0_2128_60079"><path fill="#fff" d="M0 0h56v68H0z"/></clipPath></defs></svg>