<?xml version="1.0" encoding="UTF-8" standalone="no"?>
<!-- Uploaded to: SVG Repo, www.svgrepo.com, Generator: SVG Repo Mixer Tools -->

<svg
   width="800px"
   height="800px"
   viewBox="0 -0.5 1025 1025"
   class="icon"
   version="1.1"
   id="svg3308"
   sodipodi:docname="sailboat-svgrepo-com.svg"
   inkscape:version="1.2.2 (732a01da63, 2022-12-09)"
   xmlns:inkscape="http://www.inkscape.org/namespaces/inkscape"
   xmlns:sodipodi="http://sodipodi.sourceforge.net/DTD/sodipodi-0.dtd"
   xmlns="http://www.w3.org/2000/svg"
   xmlns:svg="http://www.w3.org/2000/svg">
  <defs
     id="defs3312" />
  <sodipodi:namedview
     id="namedview3310"
     pagecolor="#ffffff"
     bordercolor="#000000"
     borderopacity="0.25"
     inkscape:showpageshadow="2"
     inkscape:pageopacity="0.0"
     inkscape:pagecheckerboard="0"
     inkscape:deskcolor="#d1d1d1"
     showgrid="false"
     inkscape:zoom="1.02125"
     inkscape:cx="400.97919"
     inkscape:cy="400.97919"
     inkscape:window-width="1920"
     inkscape:window-height="1013"
     inkscape:window-x="-9"
     inkscape:window-y="-9"
     inkscape:window-maximized="1"
     inkscape:current-layer="svg3308" />
  <path
     d="M0.999024 0.999024h1023.000976v1023.000976H0.999024z"
     fill="#FFFFFF"
     id="path3286" />
  <path
     d="m 159.8439,837.18244 -31.96878,-6.99317 31.96878,-7.9922 7.9922,-31.96878 6.99317,31.96878 32.9678,7.9922 -32.9678,6.99317 -6.99317,32.9678 z"
     fill="#fdcd60"
     id="big_star2"
     sodipodi:nodetypes="ccccccccc"
     inkscape:label="#big_star2" />
  <path
     d="m 852.16781,261.74439 -13.98635,-2.99707 13.98635,-3.9961 3.99609,-13.98634 2.99708,13.98634 14.98536,3.9961 -14.98536,2.99707 -2.99708,14.98537 z"
     fill="#fdcd60"
     id="small_star1"
     sodipodi:nodetypes="ccccccccc"
     inkscape:label="#small_star1" />
  <path
     d="m 125.22667,560.7896 -13.98635,-2.99707 13.98635,-3.9961 3.99609,-13.98634 2.99708,13.98634 14.98536,3.9961 -14.98536,2.99707 -2.99708,14.98537 z"
     fill="#fdcd60"
     id="small_star2"
     sodipodi:nodetypes="ccccccccc"
     inkscape:label="#small_star1" />
  <path
     d="M163.84 318.68878m-8.99122 0a8.99122 8.99122 0 1 0 17.98244 0 8.99122 8.99122 0 1 0-17.98244 0Z"
     fill="#5546CB"
     id="path3292" />
  <path
     d="M874.146341 687.32878a24.97561 24.97561 0 1 1 24.97561-24.975609 24.97561 24.97561 0 0 1-24.97561 24.975609z m0-35.964878a9.990244 9.990244 0 1 0 9.990244 9.990244 9.990244 9.990244 0 0 0-9.990244-9.990244z"
     fill="#5546CB"
     id="path3294" />
  <path
     d="M778.24 330.677073a106.89561 106.89561 0 0 0-202.801951-47.953171l98.903414 154.848781a106.89561 106.89561 0 0 0 103.898537-106.89561z m-153.849756 0a46.954146 46.954146 0 1 1 46.954146 46.954147 46.954146 46.954146 0 0 1-46.954146-46.954147z"
     fill="#F47837"
     id="path3296" />
  <path
     d="M671.34439 330.677073m-46.954146 0a46.954146 46.954146 0 1 0 93.908293 0 46.954146 46.954146 0 1 0-93.908293 0Z"
     fill="#FFFFFF"
     id="path3298" />
  <path
     d="M320.686829 850.169756h393.61561l77.923902-128.874146H242.762927l77.923902 128.874146z"
     fill="#AFBDEF"
     id="path3300" />
  <path
     d="M524.487805 701.315122v-24.97561h302.70439L687.32878 456.554146c62.938537-7.992195 110.891707-60.940488 110.891708-125.877073a126.876098 126.876098 0 0 0-234.770732-66.934634l-85.916097-134.868293v414.595122a380.628293 380.628293 0 0 1-19.980488-56.94439c-12.987317-51.949268-18.981463-163.84-17.982439-333.674146v-21.978537l-16.983415 14.985366c-87.914146 79.921951-151.851707 163.84-188.81561 250.755122s-49.95122 177.826341-36.963902 270.73561v8.991219h307.699512v23.976586H206.798049l102.899512 169.834146h415.594146l102.899513-168.835122z m146.856585-477.533659a106.89561 106.89561 0 0 1 3.996098 213.79122L575.438049 282.723902a106.89561 106.89561 0 0 1 95.906341-58.942439z m118.883903 432.577561H542.470244a770.247805 770.247805 0 0 1-42.958049-70.930731V197.806829z m-573.44 0c-10.989268-85.916098 1.998049-170.833171 36.963902-251.754146s89.912195-154.84878 167.836098-227.777561c0 159.843902 5.994146 263.742439 18.981463 314.692683s38.961951 104.897561 77.923903 164.839024c-93.908293-0.999024-194.809756 0-301.705366 0.999025z m497.514146 193.810732H320.686829l-77.923902-128.874146h549.463414z"
     fill="#5546CB"
     id="path3302" />
  <path
     d="M542.470244 656.359024h247.758049L498.513171 197.806829v387.621464a770.247805 770.247805 0 0 0 43.957073 70.930731z"
     fill="#FFFFFF"
     id="path3304" />
  <path
     d="M440.569756 492.519024c-12.987317-51.949268-18.981463-154.84878-18.981463-314.692683-76.924878 72.92878-133.869268 149.853659-167.836098 227.777561s-47.953171 164.839024-36.963902 251.754147c106.89561-0.999024 207.797073-0.999024 300.706341 0-38.961951-59.941463-64.936585-115.886829-76.924878-164.839025z"
     fill="#FBCE49"
     id="path3306" />
  <path
     d="m 851.1696,155.76614 -41.95903,-11.9883 41.95903,-10.98926 11.98829,-42.958048 10.98927,42.958048 42.95805,10.98926 -42.95805,11.9883 -10.98927,41.95902 z"
     style="fill:#fdcd60"
     id="big_star1"
     inkscape:label="#big_star1" />
</svg>
